<mxfile host="app.diagrams.net" modified="2021-03-14T16:09:22.996Z" agent="5.0 (Windows)" etag="vwark4lzD25R4IUxfYDD" version="14.4.8" type="github">
  <diagram id="UCudS29mGW5r3KCmV8oQ" name="Page-1">
    <mxGraphModel dx="1422" dy="694" grid="1" gridSize="10" guides="1" tooltips="1" connect="1" arrows="1" fold="1" page="1" pageScale="1" pageWidth="850" pageHeight="1100" math="0" shadow="0">
      <root>
        <mxCell id="0" />
        <mxCell id="1" parent="0" />
        <mxCell id="w9-L-fleVWnlw-HBEwQN-4" value="External MEP" style="rounded=0;whiteSpace=wrap;html=1;fillColor=#d5e8d4;strokeColor=#82b366;" vertex="1" parent="1">
          <mxGeometry x="160" y="171" width="130" height="40" as="geometry" />
        </mxCell>
        <mxCell id="w9-L-fleVWnlw-HBEwQN-5" value="&lt;div&gt;External MEP&lt;/div&gt;&lt;div&gt;Database&lt;br&gt;&lt;/div&gt;" style="rounded=0;whiteSpace=wrap;html=1;fillColor=#d5e8d4;strokeColor=#82b366;" vertex="1" parent="1">
          <mxGeometry x="160" y="251" width="130" height="40" as="geometry" />
        </mxCell>
        <mxCell id="w9-L-fleVWnlw-HBEwQN-2" value="IHS" style="rounded=0;whiteSpace=wrap;html=1;fillColor=#dae8fc;strokeColor=#6c8ebf;" vertex="1" parent="1">
          <mxGeometry x="50" y="20" width="70" height="60" as="geometry" />
        </mxCell>
        <mxCell id="w9-L-fleVWnlw-HBEwQN-3" value="Bank" style="rounded=0;whiteSpace=wrap;html=1;fillColor=#dae8fc;strokeColor=#6c8ebf;" vertex="1" parent="1">
          <mxGeometry x="150" y="20" width="80" height="60" as="geometry" />
        </mxCell>
        <mxCell id="w9-L-fleVWnlw-HBEwQN-11" value="&#xa;&#xa;&#xa;&#xa;&#xa;Application Server&#xa;" style="group;gradientColor=#b3b3b3;fillColor=#f5f5f5;strokeColor=#666666;" vertex="1" connectable="0" parent="1">
          <mxGeometry x="22" y="172" width="128" height="100" as="geometry" />
        </mxCell>
        <mxCell id="DTpLSvRVLWuqKXQXCwXV-2" value="&lt;div&gt;&lt;font style=&quot;font-size: 12px&quot;&gt;Admin &lt;br&gt;&lt;/font&gt;&lt;/div&gt;&lt;div&gt;&lt;font style=&quot;font-size: 12px&quot;&gt;Panel&lt;/font&gt;&lt;/div&gt;" style="rounded=0;whiteSpace=wrap;html=1;fillColor=#fff2cc;strokeColor=#d6b656;" parent="w9-L-fleVWnlw-HBEwQN-11" vertex="1">
          <mxGeometry x="10" y="10" width="46" height="60" as="geometry" />
        </mxCell>
        <mxCell id="w9-L-fleVWnlw-HBEwQN-1" value="PCS" style="rounded=0;whiteSpace=wrap;html=1;fillColor=#fff2cc;strokeColor=#d6b656;" vertex="1" parent="w9-L-fleVWnlw-HBEwQN-11">
          <mxGeometry x="64" y="10" width="32" height="60" as="geometry" />
        </mxCell>
        <mxCell id="w9-L-fleVWnlw-HBEwQN-44" value="" style="endArrow=none;html=1;strokeColor=#000000;strokeWidth=1;" edge="1" parent="w9-L-fleVWnlw-HBEwQN-11">
          <mxGeometry width="50" height="50" relative="1" as="geometry">
            <mxPoint x="73.6" y="130" as="sourcePoint" />
            <mxPoint x="73.6" y="70" as="targetPoint" />
          </mxGeometry>
        </mxCell>
        <mxCell id="w9-L-fleVWnlw-HBEwQN-46" value="" style="endArrow=none;html=1;strokeColor=#000000;strokeWidth=1;" edge="1" parent="w9-L-fleVWnlw-HBEwQN-11">
          <mxGeometry width="50" height="50" relative="1" as="geometry">
            <mxPoint x="72.8" y="130" as="sourcePoint" />
            <mxPoint x="318" y="130" as="targetPoint" />
            <Array as="points">
              <mxPoint x="168" y="130" />
            </Array>
          </mxGeometry>
        </mxCell>
        <mxCell id="w9-L-fleVWnlw-HBEwQN-71" value="" style="endArrow=none;html=1;strokeColor=#000000;strokeWidth=1;exitX=0;exitY=0.8;exitDx=0;exitDy=0;rounded=0;exitPerimeter=0;" edge="1" parent="w9-L-fleVWnlw-HBEwQN-11" source="w9-L-fleVWnlw-HBEwQN-5">
          <mxGeometry width="50" height="50" relative="1" as="geometry">
            <mxPoint x="132.5" y="111" as="sourcePoint" />
            <mxPoint x="27.5" y="70" as="targetPoint" />
            <Array as="points">
              <mxPoint x="27.5" y="111" />
            </Array>
          </mxGeometry>
        </mxCell>
        <mxCell id="w9-L-fleVWnlw-HBEwQN-15" value="&lt;div&gt;EXT Gateway &lt;br&gt;&lt;/div&gt;&lt;div&gt;QMGR&lt;br&gt;&lt;/div&gt;" style="rounded=0;whiteSpace=wrap;html=1;fillColor=#d5e8d4;strokeColor=#82b366;" vertex="1" parent="1">
          <mxGeometry x="300" y="190" width="72" height="60" as="geometry" />
        </mxCell>
        <mxCell id="w9-L-fleVWnlw-HBEwQN-16" value="" style="endArrow=none;dashed=1;html=1;fillColor=#f8cecc;rounded=0;strokeWidth=3;strokeColor=#006600;" edge="1" parent="1">
          <mxGeometry width="50" height="50" relative="1" as="geometry">
            <mxPoint x="10" y="150" as="sourcePoint" />
            <mxPoint x="390" y="150" as="targetPoint" />
          </mxGeometry>
        </mxCell>
        <mxCell id="w9-L-fleVWnlw-HBEwQN-17" value="" style="endArrow=none;dashed=1;html=1;fillColor=#f8cecc;rounded=0;strokeWidth=3;strokeColor=#006600;" edge="1" parent="1">
          <mxGeometry width="50" height="50" relative="1" as="geometry">
            <mxPoint x="10" y="320" as="sourcePoint" />
            <mxPoint x="390" y="320" as="targetPoint" />
          </mxGeometry>
        </mxCell>
        <mxCell id="w9-L-fleVWnlw-HBEwQN-18" value="" style="endArrow=none;dashed=1;html=1;fillColor=#f8cecc;rounded=0;strokeWidth=3;strokeColor=#006600;" edge="1" parent="1">
          <mxGeometry width="50" height="50" relative="1" as="geometry">
            <mxPoint x="390" y="150" as="sourcePoint" />
            <mxPoint x="390" y="320" as="targetPoint" />
          </mxGeometry>
        </mxCell>
        <mxCell id="w9-L-fleVWnlw-HBEwQN-20" value="QPMC MEP" style="rounded=0;whiteSpace=wrap;html=1;fillColor=#f8cecc;strokeColor=#b85450;" vertex="1" parent="1">
          <mxGeometry x="600" y="180" width="130" height="40" as="geometry" />
        </mxCell>
        <mxCell id="w9-L-fleVWnlw-HBEwQN-63" style="edgeStyle=orthogonalEdgeStyle;rounded=1;orthogonalLoop=1;jettySize=auto;html=1;endArrow=none;endFill=0;endSize=3;strokeColor=#000000;strokeWidth=1;" edge="1" parent="1" source="w9-L-fleVWnlw-HBEwQN-21">
          <mxGeometry relative="1" as="geometry">
            <mxPoint x="665" y="230" as="targetPoint" />
          </mxGeometry>
        </mxCell>
        <mxCell id="w9-L-fleVWnlw-HBEwQN-64" value="" style="edgeStyle=orthogonalEdgeStyle;rounded=1;orthogonalLoop=1;jettySize=auto;html=1;endArrow=none;endFill=0;endSize=3;strokeColor=#000000;strokeWidth=1;" edge="1" parent="1" source="w9-L-fleVWnlw-HBEwQN-21" target="w9-L-fleVWnlw-HBEwQN-20">
          <mxGeometry relative="1" as="geometry" />
        </mxCell>
        <mxCell id="w9-L-fleVWnlw-HBEwQN-65" value="" style="edgeStyle=orthogonalEdgeStyle;rounded=1;orthogonalLoop=1;jettySize=auto;html=1;endArrow=none;endFill=0;endSize=3;strokeColor=#000000;strokeWidth=1;" edge="1" parent="1" target="w9-L-fleVWnlw-HBEwQN-20">
          <mxGeometry relative="1" as="geometry">
            <mxPoint x="665" y="250" as="sourcePoint" />
          </mxGeometry>
        </mxCell>
        <mxCell id="w9-L-fleVWnlw-HBEwQN-67" value="" style="edgeStyle=orthogonalEdgeStyle;curved=1;orthogonalLoop=1;jettySize=auto;html=1;endArrow=none;endFill=0;endSize=3;strokeColor=#000000;strokeWidth=1;" edge="1" parent="1" source="w9-L-fleVWnlw-HBEwQN-21" target="w9-L-fleVWnlw-HBEwQN-20">
          <mxGeometry relative="1" as="geometry" />
        </mxCell>
        <mxCell id="w9-L-fleVWnlw-HBEwQN-21" value="&lt;div&gt;QPMC MEP&lt;/div&gt;&lt;div&gt;Database&lt;br&gt;&lt;/div&gt;" style="rounded=0;whiteSpace=wrap;html=1;fillColor=#f8cecc;strokeColor=#b85450;" vertex="1" parent="1">
          <mxGeometry x="600" y="260" width="130" height="40" as="geometry" />
        </mxCell>
        <mxCell id="w9-L-fleVWnlw-HBEwQN-22" value="IHS" style="rounded=0;whiteSpace=wrap;html=1;fillColor=#f9f7ed;strokeColor=#36393d;" vertex="1" parent="1">
          <mxGeometry x="470" y="20" width="40" height="60" as="geometry" />
        </mxCell>
        <mxCell id="w9-L-fleVWnlw-HBEwQN-23" value="EAMS" style="rounded=0;whiteSpace=wrap;html=1;fillColor=#f9f7ed;strokeColor=#36393d;" vertex="1" parent="1">
          <mxGeometry x="520" y="20" width="40" height="60" as="geometry" />
        </mxCell>
        <mxCell id="w9-L-fleVWnlw-HBEwQN-24" value="ERP" style="rounded=0;whiteSpace=wrap;html=1;fillColor=#f9f7ed;strokeColor=#36393d;" vertex="1" parent="1">
          <mxGeometry x="570" y="20" width="40" height="60" as="geometry" />
        </mxCell>
        <mxCell id="w9-L-fleVWnlw-HBEwQN-25" value="" style="group" vertex="1" connectable="0" parent="1">
          <mxGeometry x="450" y="170" width="160" height="100" as="geometry" />
        </mxCell>
        <mxCell id="w9-L-fleVWnlw-HBEwQN-26" value="&lt;div&gt;&lt;br&gt;&lt;/div&gt;&lt;div&gt;&lt;br&gt;&lt;/div&gt;&lt;div&gt;&lt;br&gt;&lt;/div&gt;&lt;div&gt;&lt;br&gt;&lt;/div&gt;&lt;div&gt;&lt;br&gt;&lt;/div&gt;&lt;div&gt;Application Server&lt;br&gt;&lt;/div&gt;" style="rounded=0;whiteSpace=wrap;html=1;fillColor=#f5f5f5;strokeColor=#666666;gradientColor=#b3b3b3;" vertex="1" parent="w9-L-fleVWnlw-HBEwQN-25">
          <mxGeometry x="10" width="120" height="100" as="geometry" />
        </mxCell>
        <mxCell id="w9-L-fleVWnlw-HBEwQN-27" value="&lt;div&gt;&lt;font style=&quot;font-size: 12px&quot;&gt;Admin &lt;br&gt;&lt;/font&gt;&lt;/div&gt;&lt;div&gt;&lt;font style=&quot;font-size: 12px&quot;&gt;Panel&lt;/font&gt;&lt;/div&gt;" style="rounded=0;whiteSpace=wrap;html=1;fillColor=#fff2cc;strokeColor=#d6b656;" vertex="1" parent="w9-L-fleVWnlw-HBEwQN-25">
          <mxGeometry x="20" y="10" width="50" height="60" as="geometry" />
        </mxCell>
        <mxCell id="w9-L-fleVWnlw-HBEwQN-28" value="PMIS" style="rounded=0;whiteSpace=wrap;html=1;fillColor=#fff2cc;strokeColor=#d6b656;" vertex="1" parent="w9-L-fleVWnlw-HBEwQN-25">
          <mxGeometry x="80" y="10" width="40" height="60" as="geometry" />
        </mxCell>
        <mxCell id="w9-L-fleVWnlw-HBEwQN-29" value="" style="endArrow=none;dashed=1;html=1;fillColor=#f8cecc;strokeColor=#b85450;rounded=0;strokeWidth=3;" edge="1" parent="w9-L-fleVWnlw-HBEwQN-25">
          <mxGeometry width="50" height="50" relative="1" as="geometry">
            <mxPoint y="-20" as="sourcePoint" />
            <mxPoint y="150" as="targetPoint" />
          </mxGeometry>
        </mxCell>
        <mxCell id="w9-L-fleVWnlw-HBEwQN-78" style="edgeStyle=orthogonalEdgeStyle;rounded=0;orthogonalLoop=1;jettySize=auto;html=1;endArrow=none;endFill=0;endSize=3;strokeColor=#000000;strokeWidth=1;" edge="1" parent="w9-L-fleVWnlw-HBEwQN-25">
          <mxGeometry relative="1" as="geometry">
            <mxPoint x="120" y="31" as="sourcePoint" />
            <mxPoint x="150" y="20" as="targetPoint" />
            <Array as="points">
              <mxPoint x="143" y="31" />
              <mxPoint x="143" y="20" />
            </Array>
          </mxGeometry>
        </mxCell>
        <mxCell id="w9-L-fleVWnlw-HBEwQN-75" style="edgeStyle=orthogonalEdgeStyle;rounded=0;orthogonalLoop=1;jettySize=auto;html=1;endArrow=none;endFill=0;endSize=3;strokeColor=#000000;strokeWidth=1;" edge="1" parent="1" source="w9-L-fleVWnlw-HBEwQN-30">
          <mxGeometry relative="1" as="geometry">
            <mxPoint x="776" y="310" as="targetPoint" />
          </mxGeometry>
        </mxCell>
        <mxCell id="w9-L-fleVWnlw-HBEwQN-30" value="&lt;div&gt;QPMC Gateway &lt;br&gt;&lt;/div&gt;&lt;div&gt;QMGR&lt;br&gt;&lt;/div&gt;" style="rounded=0;whiteSpace=wrap;html=1;fillColor=#f8cecc;strokeColor=#b85450;" vertex="1" parent="1">
          <mxGeometry x="750" y="239" width="72" height="51" as="geometry" />
        </mxCell>
        <mxCell id="w9-L-fleVWnlw-HBEwQN-31" value="" style="endArrow=none;dashed=1;html=1;fillColor=#f8cecc;strokeColor=#b85450;rounded=0;strokeWidth=3;" edge="1" parent="1">
          <mxGeometry width="50" height="50" relative="1" as="geometry">
            <mxPoint x="450" y="150" as="sourcePoint" />
            <mxPoint x="830" y="150" as="targetPoint" />
          </mxGeometry>
        </mxCell>
        <mxCell id="w9-L-fleVWnlw-HBEwQN-32" value="" style="endArrow=none;dashed=1;html=1;fillColor=#f8cecc;strokeColor=#b85450;rounded=0;strokeWidth=3;" edge="1" parent="1">
          <mxGeometry width="50" height="50" relative="1" as="geometry">
            <mxPoint x="450" y="320" as="sourcePoint" />
            <mxPoint x="830" y="320" as="targetPoint" />
          </mxGeometry>
        </mxCell>
        <mxCell id="w9-L-fleVWnlw-HBEwQN-33" value="" style="endArrow=none;dashed=1;html=1;fillColor=#f8cecc;strokeColor=#b85450;rounded=0;strokeWidth=3;" edge="1" parent="1">
          <mxGeometry width="50" height="50" relative="1" as="geometry">
            <mxPoint x="830" y="150" as="sourcePoint" />
            <mxPoint x="830" y="320" as="targetPoint" />
          </mxGeometry>
        </mxCell>
        <mxCell id="w9-L-fleVWnlw-HBEwQN-34" value="VTMS" style="rounded=0;whiteSpace=wrap;html=1;fillColor=#f9f7ed;strokeColor=#36393d;" vertex="1" parent="1">
          <mxGeometry x="620" y="20" width="40" height="60" as="geometry" />
        </mxCell>
        <mxCell id="w9-L-fleVWnlw-HBEwQN-35" value="IBMS" style="rounded=0;whiteSpace=wrap;html=1;fillColor=#f9f7ed;strokeColor=#36393d;" vertex="1" parent="1">
          <mxGeometry x="670" y="20" width="40" height="60" as="geometry" />
        </mxCell>
        <mxCell id="w9-L-fleVWnlw-HBEwQN-36" value="ERP" style="rounded=0;whiteSpace=wrap;html=1;fillColor=#f9f7ed;strokeColor=#36393d;" vertex="1" parent="1">
          <mxGeometry x="720" y="20" width="40" height="60" as="geometry" />
        </mxCell>
        <mxCell id="w9-L-fleVWnlw-HBEwQN-37" value="AGMS" style="rounded=0;whiteSpace=wrap;html=1;fillColor=#f9f7ed;strokeColor=#36393d;" vertex="1" parent="1">
          <mxGeometry x="772" y="20" width="40" height="60" as="geometry" />
        </mxCell>
        <mxCell id="w9-L-fleVWnlw-HBEwQN-40" value="" style="endArrow=none;html=1;strokeWidth=1;endSize=3;" edge="1" parent="1">
          <mxGeometry width="50" height="50" relative="1" as="geometry">
            <mxPoint x="80" y="170" as="sourcePoint" />
            <mxPoint x="80" y="80" as="targetPoint" />
          </mxGeometry>
        </mxCell>
        <mxCell id="w9-L-fleVWnlw-HBEwQN-41" value="" style="endArrow=none;html=1;strokeWidth=1;endSize=3;" edge="1" parent="1">
          <mxGeometry width="50" height="50" relative="1" as="geometry">
            <mxPoint x="190" y="170" as="sourcePoint" />
            <mxPoint x="189.5" y="80" as="targetPoint" />
          </mxGeometry>
        </mxCell>
        <mxCell id="w9-L-fleVWnlw-HBEwQN-42" value="" style="endArrow=none;html=1;strokeWidth=1;endSize=3;" edge="1" parent="1">
          <mxGeometry width="50" height="50" relative="1" as="geometry">
            <mxPoint x="270" y="170" as="sourcePoint" />
            <mxPoint x="270" y="80" as="targetPoint" />
          </mxGeometry>
        </mxCell>
        <mxCell id="w9-L-fleVWnlw-HBEwQN-45" value="" style="endArrow=none;html=1;strokeColor=#000000;strokeWidth=1;entryX=0.5;entryY=1;entryDx=0;entryDy=0;" edge="1" parent="1">
          <mxGeometry width="50" height="50" relative="1" as="geometry">
            <mxPoint x="340" y="300" as="sourcePoint" />
            <mxPoint x="340" y="250" as="targetPoint" />
          </mxGeometry>
        </mxCell>
        <mxCell id="w9-L-fleVWnlw-HBEwQN-48" value="" style="endArrow=none;html=1;strokeWidth=1;endSize=3;" edge="1" parent="1">
          <mxGeometry width="50" height="50" relative="1" as="geometry">
            <mxPoint x="490" y="169" as="sourcePoint" />
            <mxPoint x="490" y="80" as="targetPoint" />
          </mxGeometry>
        </mxCell>
        <mxCell id="w9-L-fleVWnlw-HBEwQN-52" value="" style="endArrow=none;html=1;strokeWidth=1;endSize=3;" edge="1" parent="1">
          <mxGeometry width="50" height="50" relative="1" as="geometry">
            <mxPoint x="540" y="120" as="sourcePoint" />
            <mxPoint x="539.5" y="80" as="targetPoint" />
          </mxGeometry>
        </mxCell>
        <mxCell id="w9-L-fleVWnlw-HBEwQN-54" value="" style="endArrow=none;html=1;strokeWidth=1;endSize=3;" edge="1" parent="1">
          <mxGeometry width="50" height="50" relative="1" as="geometry">
            <mxPoint x="590" y="120" as="sourcePoint" />
            <mxPoint x="589.5" y="80" as="targetPoint" />
          </mxGeometry>
        </mxCell>
        <mxCell id="w9-L-fleVWnlw-HBEwQN-55" value="" style="endArrow=none;html=1;strokeWidth=1;endSize=3;" edge="1" parent="1">
          <mxGeometry width="50" height="50" relative="1" as="geometry">
            <mxPoint x="640" y="120" as="sourcePoint" />
            <mxPoint x="639.5" y="80" as="targetPoint" />
          </mxGeometry>
        </mxCell>
        <mxCell id="w9-L-fleVWnlw-HBEwQN-56" value="" style="endArrow=none;html=1;strokeWidth=1;endSize=3;" edge="1" parent="1">
          <mxGeometry width="50" height="50" relative="1" as="geometry">
            <mxPoint x="690" y="120" as="sourcePoint" />
            <mxPoint x="689.5" y="80" as="targetPoint" />
          </mxGeometry>
        </mxCell>
        <mxCell id="w9-L-fleVWnlw-HBEwQN-57" value="" style="endArrow=none;html=1;strokeWidth=1;endSize=3;" edge="1" parent="1">
          <mxGeometry width="50" height="50" relative="1" as="geometry">
            <mxPoint x="740" y="120" as="sourcePoint" />
            <mxPoint x="739.5" y="80" as="targetPoint" />
          </mxGeometry>
        </mxCell>
        <mxCell id="w9-L-fleVWnlw-HBEwQN-58" value="" style="endArrow=none;html=1;strokeWidth=1;endSize=3;" edge="1" parent="1">
          <mxGeometry width="50" height="50" relative="1" as="geometry">
            <mxPoint x="792" y="120" as="sourcePoint" />
            <mxPoint x="791.5" y="80" as="targetPoint" />
          </mxGeometry>
        </mxCell>
        <mxCell id="w9-L-fleVWnlw-HBEwQN-59" value="" style="endArrow=none;html=1;strokeColor=#000000;strokeWidth=1;" edge="1" parent="1">
          <mxGeometry width="50" height="50" relative="1" as="geometry">
            <mxPoint x="540" y="120" as="sourcePoint" />
            <mxPoint x="792" y="120" as="targetPoint" />
          </mxGeometry>
        </mxCell>
        <mxCell id="w9-L-fleVWnlw-HBEwQN-60" value="" style="endArrow=none;html=1;strokeColor=#000000;strokeWidth=1;" edge="1" parent="1">
          <mxGeometry width="50" height="50" relative="1" as="geometry">
            <mxPoint x="760" y="238" as="sourcePoint" />
            <mxPoint x="760" y="120" as="targetPoint" />
          </mxGeometry>
        </mxCell>
        <mxCell id="w9-L-fleVWnlw-HBEwQN-61" value="" style="endArrow=none;html=1;strokeColor=#000000;strokeWidth=1;exitX=0.5;exitY=0;exitDx=0;exitDy=0;" edge="1" parent="1" source="w9-L-fleVWnlw-HBEwQN-20">
          <mxGeometry width="50" height="50" relative="1" as="geometry">
            <mxPoint x="615" y="170" as="sourcePoint" />
            <mxPoint x="665" y="120" as="targetPoint" />
          </mxGeometry>
        </mxCell>
        <mxCell id="w9-L-fleVWnlw-HBEwQN-62" value="" style="endArrow=none;html=1;strokeColor=#000000;strokeWidth=1;" edge="1" parent="1">
          <mxGeometry width="50" height="50" relative="1" as="geometry">
            <mxPoint x="226" y="250" as="sourcePoint" />
            <mxPoint x="226" y="210" as="targetPoint" />
          </mxGeometry>
        </mxCell>
        <mxCell id="w9-L-fleVWnlw-HBEwQN-66" value="" style="endArrow=none;html=1;strokeColor=#000000;strokeWidth=1;curved=1;exitX=0;exitY=0.75;exitDx=0;exitDy=0;" edge="1" parent="1" source="w9-L-fleVWnlw-HBEwQN-30">
          <mxGeometry width="50" height="50" relative="1" as="geometry">
            <mxPoint x="710" y="250" as="sourcePoint" />
            <mxPoint x="710" y="220" as="targetPoint" />
          </mxGeometry>
        </mxCell>
        <mxCell id="w9-L-fleVWnlw-HBEwQN-72" value="" style="endArrow=none;html=1;strokeColor=#000000;strokeWidth=1;exitX=0;exitY=0.75;exitDx=0;exitDy=0;entryX=0.5;entryY=1;entryDx=0;entryDy=0;rounded=0;" edge="1" parent="1">
          <mxGeometry width="50" height="50" relative="1" as="geometry">
            <mxPoint x="600" y="281" as="sourcePoint" />
            <mxPoint x="495" y="240" as="targetPoint" />
            <Array as="points">
              <mxPoint x="495" y="281" />
            </Array>
          </mxGeometry>
        </mxCell>
        <mxCell id="w9-L-fleVWnlw-HBEwQN-74" value="" style="endArrow=none;html=1;strokeColor=#000000;strokeWidth=1;entryX=0.5;entryY=1;entryDx=0;entryDy=0;rounded=0;" edge="1" parent="1">
          <mxGeometry width="50" height="50" relative="1" as="geometry">
            <mxPoint x="776" y="310" as="sourcePoint" />
            <mxPoint x="546" y="240" as="targetPoint" />
            <Array as="points">
              <mxPoint x="546" y="310" />
            </Array>
          </mxGeometry>
        </mxCell>
        <mxCell id="w9-L-fleVWnlw-HBEwQN-76" value="" style="endArrow=none;html=1;strokeColor=#000000;strokeWidth=1;curved=1;exitX=0;exitY=1;exitDx=0;exitDy=0;" edge="1" parent="1" source="w9-L-fleVWnlw-HBEwQN-15">
          <mxGeometry width="50" height="50" relative="1" as="geometry">
            <mxPoint x="300" y="246" as="sourcePoint" />
            <mxPoint x="270" y="211" as="targetPoint" />
          </mxGeometry>
        </mxCell>
        <mxCell id="w9-L-fleVWnlw-HBEwQN-77" style="edgeStyle=orthogonalEdgeStyle;rounded=0;orthogonalLoop=1;jettySize=auto;html=1;endArrow=none;endFill=0;endSize=3;strokeColor=#000000;strokeWidth=1;" edge="1" parent="1" source="w9-L-fleVWnlw-HBEwQN-1" target="w9-L-fleVWnlw-HBEwQN-4">
          <mxGeometry relative="1" as="geometry">
            <mxPoint x="138" y="202" as="targetPoint" />
            <Array as="points" />
          </mxGeometry>
        </mxCell>
        <mxCell id="w9-L-fleVWnlw-HBEwQN-79" value="Cognos Server" style="rounded=0;whiteSpace=wrap;html=1;fillColor=#fff2cc;strokeColor=#d6b656;" vertex="1" parent="1">
          <mxGeometry x="770" y="180" width="48" height="50" as="geometry" />
        </mxCell>
        <mxCell id="w9-L-fleVWnlw-HBEwQN-80" style="edgeStyle=orthogonalEdgeStyle;rounded=0;orthogonalLoop=1;jettySize=auto;html=1;endArrow=none;endFill=0;endSize=3;strokeColor=#000000;strokeWidth=1;" edge="1" parent="1">
          <mxGeometry relative="1" as="geometry">
            <mxPoint x="790" y="178" as="targetPoint" />
            <mxPoint x="550" y="178" as="sourcePoint" />
            <Array as="points">
              <mxPoint x="550" y="160" />
              <mxPoint x="790" y="160" />
            </Array>
          </mxGeometry>
        </mxCell>
        <mxCell id="w9-L-fleVWnlw-HBEwQN-85" value="&lt;div&gt;QT MEP&lt;/div&gt;&lt;div&gt;Database&lt;br&gt;&lt;/div&gt;" style="rounded=0;whiteSpace=wrap;html=1;fillColor=#fad7ac;strokeColor=#b46504;" vertex="1" parent="1">
          <mxGeometry x="163" y="444" width="130" height="40" as="geometry" />
        </mxCell>
        <mxCell id="w9-L-fleVWnlw-HBEwQN-86" value="QT MEP" style="rounded=0;whiteSpace=wrap;html=1;fillColor=#fad7ac;strokeColor=#b46504;" vertex="1" parent="1">
          <mxGeometry x="163" y="524" width="130" height="40" as="geometry" />
        </mxCell>
        <mxCell id="w9-L-fleVWnlw-HBEwQN-87" style="edgeStyle=orthogonalEdgeStyle;rounded=0;orthogonalLoop=1;jettySize=auto;html=1;entryX=0.542;entryY=0.1;entryDx=0;entryDy=0;entryPerimeter=0;strokeWidth=3;strokeColor=none;" edge="1" parent="1" source="w9-L-fleVWnlw-HBEwQN-88" target="w9-L-fleVWnlw-HBEwQN-91">
          <mxGeometry relative="1" as="geometry" />
        </mxCell>
        <mxCell id="w9-L-fleVWnlw-HBEwQN-88" value="NAVIS" style="rounded=0;whiteSpace=wrap;html=1;fillColor=#dae8fc;strokeColor=#6c8ebf;" vertex="1" parent="1">
          <mxGeometry x="143" y="663" width="70" height="60" as="geometry" />
        </mxCell>
        <mxCell id="w9-L-fleVWnlw-HBEwQN-90" value="" style="group" vertex="1" connectable="0" parent="1">
          <mxGeometry x="13" y="443" width="140" height="100" as="geometry" />
        </mxCell>
        <mxCell id="w9-L-fleVWnlw-HBEwQN-91" value="&lt;div&gt;&lt;br&gt;&lt;/div&gt;&lt;div&gt;&lt;br&gt;&lt;/div&gt;&lt;div&gt;&lt;br&gt;&lt;/div&gt;&lt;div&gt;&lt;br&gt;&lt;/div&gt;&lt;div&gt;&lt;br&gt;&lt;/div&gt;&lt;div&gt;Application Server&lt;br&gt;&lt;/div&gt;" style="rounded=0;whiteSpace=wrap;html=1;fillColor=#dae8fc;strokeColor=#6c8ebf;" vertex="1" parent="w9-L-fleVWnlw-HBEwQN-90">
          <mxGeometry x="8.75" width="105" height="100" as="geometry" />
        </mxCell>
        <mxCell id="w9-L-fleVWnlw-HBEwQN-92" value="&lt;div&gt;&lt;font style=&quot;font-size: 12px&quot;&gt;Admin &lt;br&gt;&lt;/font&gt;&lt;/div&gt;&lt;div&gt;&lt;font style=&quot;font-size: 12px&quot;&gt;Panel&lt;/font&gt;&lt;/div&gt;" style="rounded=0;whiteSpace=wrap;html=1;fillColor=#fff2cc;strokeColor=#d6b656;" vertex="1" parent="w9-L-fleVWnlw-HBEwQN-90">
          <mxGeometry x="39.379999999999995" y="10" width="43.75" height="60" as="geometry" />
        </mxCell>
        <mxCell id="w9-L-fleVWnlw-HBEwQN-94" value="" style="endArrow=none;dashed=1;html=1;fillColor=#f8cecc;rounded=0;strokeWidth=3;strokeColor=#FFB570;" edge="1" parent="w9-L-fleVWnlw-HBEwQN-90">
          <mxGeometry width="50" height="50" relative="1" as="geometry">
            <mxPoint y="-20" as="sourcePoint" />
            <mxPoint y="150" as="targetPoint" />
          </mxGeometry>
        </mxCell>
        <mxCell id="w9-L-fleVWnlw-HBEwQN-97" value="&lt;div&gt;QT&lt;/div&gt;&lt;div&gt;Gateway &lt;br&gt;&lt;/div&gt;&lt;div&gt;QMGR&lt;br&gt;&lt;/div&gt;" style="rounded=0;whiteSpace=wrap;html=1;fillColor=#fad7ac;strokeColor=#b46504;" vertex="1" parent="1">
          <mxGeometry x="303" y="463" width="72" height="60" as="geometry" />
        </mxCell>
        <mxCell id="w9-L-fleVWnlw-HBEwQN-98" value="" style="endArrow=none;dashed=1;html=1;fillColor=#f8cecc;rounded=0;strokeWidth=3;strokeColor=#FFB570;" edge="1" parent="1">
          <mxGeometry width="50" height="50" relative="1" as="geometry">
            <mxPoint x="13.000000000000114" y="423" as="sourcePoint" />
            <mxPoint x="393" y="423" as="targetPoint" />
          </mxGeometry>
        </mxCell>
        <mxCell id="w9-L-fleVWnlw-HBEwQN-99" value="" style="endArrow=none;dashed=1;html=1;fillColor=#f8cecc;rounded=0;strokeWidth=3;strokeColor=#FFB570;" edge="1" parent="1">
          <mxGeometry width="50" height="50" relative="1" as="geometry">
            <mxPoint x="13.000000000000114" y="593" as="sourcePoint" />
            <mxPoint x="393" y="593" as="targetPoint" />
          </mxGeometry>
        </mxCell>
        <mxCell id="w9-L-fleVWnlw-HBEwQN-100" value="" style="endArrow=none;dashed=1;html=1;fillColor=#f8cecc;rounded=0;strokeWidth=3;strokeColor=#FFB570;" edge="1" parent="1">
          <mxGeometry width="50" height="50" relative="1" as="geometry">
            <mxPoint x="393" y="423" as="sourcePoint" />
            <mxPoint x="393" y="593" as="targetPoint" />
          </mxGeometry>
        </mxCell>
        <mxCell id="w9-L-fleVWnlw-HBEwQN-102" value="" style="endArrow=none;html=1;strokeWidth=1;endSize=3;exitX=0.5;exitY=0;exitDx=0;exitDy=0;" edge="1" parent="1">
          <mxGeometry width="50" height="50" relative="1" as="geometry">
            <mxPoint x="258" y="662" as="sourcePoint" />
            <mxPoint x="258" y="565" as="targetPoint" />
          </mxGeometry>
        </mxCell>
        <mxCell id="w9-L-fleVWnlw-HBEwQN-104" value="" style="endArrow=none;html=1;strokeColor=#000000;strokeWidth=1;entryX=0.5;entryY=1;entryDx=0;entryDy=0;" edge="1" parent="1">
          <mxGeometry width="50" height="50" relative="1" as="geometry">
            <mxPoint x="293" y="663" as="sourcePoint" />
            <mxPoint x="343" y="523" as="targetPoint" />
          </mxGeometry>
        </mxCell>
        <mxCell id="w9-L-fleVWnlw-HBEwQN-105" value="" style="endArrow=none;html=1;strokeColor=#000000;strokeWidth=1;" edge="1" parent="1">
          <mxGeometry width="50" height="50" relative="1" as="geometry">
            <mxPoint x="229" y="523" as="sourcePoint" />
            <mxPoint x="229" y="483" as="targetPoint" />
          </mxGeometry>
        </mxCell>
        <mxCell id="w9-L-fleVWnlw-HBEwQN-107" value="" style="endArrow=none;html=1;strokeColor=#000000;strokeWidth=1;curved=1;exitX=0;exitY=1;exitDx=0;exitDy=0;" edge="1" parent="1" source="w9-L-fleVWnlw-HBEwQN-97">
          <mxGeometry width="50" height="50" relative="1" as="geometry">
            <mxPoint x="303" y="519" as="sourcePoint" />
            <mxPoint x="273" y="484" as="targetPoint" />
          </mxGeometry>
        </mxCell>
        <mxCell id="w9-L-fleVWnlw-HBEwQN-109" value="" style="group" vertex="1" connectable="0" parent="1">
          <mxGeometry x="230" y="860" width="290" height="60" as="geometry" />
        </mxCell>
        <mxCell id="w9-L-fleVWnlw-HBEwQN-111" value="AGMS" style="rounded=0;whiteSpace=wrap;html=1;fillColor=#dae8fc;strokeColor=#6c8ebf;" vertex="1" parent="w9-L-fleVWnlw-HBEwQN-109">
          <mxGeometry x="-7" y="-197" width="70" height="60" as="geometry" />
        </mxCell>
        <mxCell id="w9-L-fleVWnlw-HBEwQN-114" value="" style="endArrow=none;html=1;strokeColor=#000000;strokeWidth=1;" edge="1" parent="1">
          <mxGeometry width="50" height="50" relative="1" as="geometry">
            <mxPoint x="183" y="663" as="sourcePoint" />
            <mxPoint x="182.6" y="564" as="targetPoint" />
          </mxGeometry>
        </mxCell>
        <mxCell id="w9-L-fleVWnlw-HBEwQN-116" value="&lt;div&gt;QT MEP&lt;/div&gt;&lt;div&gt;Database&lt;br&gt;&lt;/div&gt;" style="rounded=0;whiteSpace=wrap;html=1;fillColor=#fad7ac;strokeColor=#b46504;" vertex="1" parent="1">
          <mxGeometry x="163" y="444" width="130" height="40" as="geometry" />
        </mxCell>
        <mxCell id="w9-L-fleVWnlw-HBEwQN-117" value="QT MEP" style="rounded=0;whiteSpace=wrap;html=1;fillColor=#fad7ac;strokeColor=#b46504;" vertex="1" parent="1">
          <mxGeometry x="163" y="524" width="130" height="40" as="geometry" />
        </mxCell>
        <mxCell id="w9-L-fleVWnlw-HBEwQN-118" style="edgeStyle=orthogonalEdgeStyle;rounded=0;orthogonalLoop=1;jettySize=auto;html=1;entryX=0.542;entryY=0.1;entryDx=0;entryDy=0;entryPerimeter=0;strokeWidth=3;strokeColor=none;" edge="1" parent="1" source="w9-L-fleVWnlw-HBEwQN-119" target="w9-L-fleVWnlw-HBEwQN-120">
          <mxGeometry relative="1" as="geometry" />
        </mxCell>
        <mxCell id="w9-L-fleVWnlw-HBEwQN-119" value="NAVIS" style="rounded=0;whiteSpace=wrap;html=1;fillColor=#f9f7ed;strokeColor=#36393d;" vertex="1" parent="1">
          <mxGeometry x="143" y="663" width="70" height="60" as="geometry" />
        </mxCell>
        <mxCell id="w9-L-fleVWnlw-HBEwQN-120" value="&lt;div&gt;&lt;br&gt;&lt;/div&gt;&lt;div&gt;&lt;br&gt;&lt;/div&gt;&lt;div&gt;&lt;br&gt;&lt;/div&gt;&lt;div&gt;&lt;br&gt;&lt;/div&gt;&lt;div&gt;&lt;br&gt;&lt;/div&gt;&lt;div&gt;Application Server&lt;br&gt;&lt;/div&gt;" style="rounded=0;whiteSpace=wrap;html=1;fillColor=#f5f5f5;strokeColor=#666666;gradientColor=#b3b3b3;" vertex="1" parent="1">
          <mxGeometry x="21.75" y="443" width="105" height="100" as="geometry" />
        </mxCell>
        <mxCell id="w9-L-fleVWnlw-HBEwQN-167" style="edgeStyle=orthogonalEdgeStyle;rounded=0;orthogonalLoop=1;jettySize=auto;html=1;exitX=1;exitY=0.25;exitDx=0;exitDy=0;entryX=0;entryY=0.5;entryDx=0;entryDy=0;endArrow=none;endFill=0;endSize=3;strokeColor=#330000;strokeWidth=1;" edge="1" parent="1" source="w9-L-fleVWnlw-HBEwQN-121" target="w9-L-fleVWnlw-HBEwQN-116">
          <mxGeometry relative="1" as="geometry" />
        </mxCell>
        <mxCell id="w9-L-fleVWnlw-HBEwQN-121" value="&lt;div&gt;&lt;font style=&quot;font-size: 12px&quot;&gt;Admin &lt;br&gt;&lt;/font&gt;&lt;/div&gt;&lt;div&gt;&lt;font style=&quot;font-size: 12px&quot;&gt;Panel&lt;/font&gt;&lt;/div&gt;" style="rounded=0;whiteSpace=wrap;html=1;fillColor=#fff2cc;strokeColor=#d6b656;" vertex="1" parent="1">
          <mxGeometry x="52.379999999999995" y="453" width="43.75" height="60" as="geometry" />
        </mxCell>
        <mxCell id="w9-L-fleVWnlw-HBEwQN-123" value="&lt;div&gt;QT&lt;/div&gt;&lt;div&gt;Gateway &lt;br&gt;&lt;/div&gt;&lt;div&gt;QMGR&lt;br&gt;&lt;/div&gt;" style="rounded=0;whiteSpace=wrap;html=1;fillColor=#fad7ac;strokeColor=#b46504;" vertex="1" parent="1">
          <mxGeometry x="303" y="463" width="72" height="60" as="geometry" />
        </mxCell>
        <mxCell id="w9-L-fleVWnlw-HBEwQN-124" value="" style="endArrow=none;dashed=1;html=1;fillColor=#f8cecc;rounded=0;strokeWidth=3;strokeColor=#FFB570;" edge="1" parent="1">
          <mxGeometry width="50" height="50" relative="1" as="geometry">
            <mxPoint x="393" y="423" as="sourcePoint" />
            <mxPoint x="393" y="593" as="targetPoint" />
          </mxGeometry>
        </mxCell>
        <mxCell id="w9-L-fleVWnlw-HBEwQN-125" value="" style="endArrow=none;html=1;strokeWidth=1;endSize=3;exitX=0.5;exitY=0;exitDx=0;exitDy=0;" edge="1" parent="1">
          <mxGeometry width="50" height="50" relative="1" as="geometry">
            <mxPoint x="258" y="662" as="sourcePoint" />
            <mxPoint x="258" y="565" as="targetPoint" />
          </mxGeometry>
        </mxCell>
        <mxCell id="w9-L-fleVWnlw-HBEwQN-126" value="" style="endArrow=none;html=1;strokeColor=#000000;strokeWidth=1;entryX=0.5;entryY=1;entryDx=0;entryDy=0;" edge="1" parent="1">
          <mxGeometry width="50" height="50" relative="1" as="geometry">
            <mxPoint x="293" y="663" as="sourcePoint" />
            <mxPoint x="343" y="523" as="targetPoint" />
          </mxGeometry>
        </mxCell>
        <mxCell id="w9-L-fleVWnlw-HBEwQN-127" value="" style="endArrow=none;html=1;strokeColor=#000000;strokeWidth=1;" edge="1" parent="1">
          <mxGeometry width="50" height="50" relative="1" as="geometry">
            <mxPoint x="229" y="523" as="sourcePoint" />
            <mxPoint x="229" y="483" as="targetPoint" />
          </mxGeometry>
        </mxCell>
        <mxCell id="w9-L-fleVWnlw-HBEwQN-128" value="" style="endArrow=none;html=1;strokeColor=#000000;strokeWidth=1;curved=1;exitX=0;exitY=1;exitDx=0;exitDy=0;" edge="1" parent="1" source="w9-L-fleVWnlw-HBEwQN-123">
          <mxGeometry width="50" height="50" relative="1" as="geometry">
            <mxPoint x="303" y="519" as="sourcePoint" />
            <mxPoint x="273" y="484" as="targetPoint" />
          </mxGeometry>
        </mxCell>
        <mxCell id="w9-L-fleVWnlw-HBEwQN-129" value="AGMS" style="rounded=0;whiteSpace=wrap;html=1;fillColor=#f9f7ed;strokeColor=#36393d;" vertex="1" parent="1">
          <mxGeometry x="223" y="663" width="70" height="60" as="geometry" />
        </mxCell>
        <mxCell id="w9-L-fleVWnlw-HBEwQN-130" value="" style="endArrow=none;html=1;strokeColor=#000000;strokeWidth=1;" edge="1" parent="1">
          <mxGeometry width="50" height="50" relative="1" as="geometry">
            <mxPoint x="183" y="663" as="sourcePoint" />
            <mxPoint x="182.5999999999999" y="564" as="targetPoint" />
          </mxGeometry>
        </mxCell>
        <mxCell id="w9-L-fleVWnlw-HBEwQN-131" value="" style="endArrow=none;dashed=1;html=1;fillColor=#f8cecc;rounded=0;strokeWidth=3;strokeColor=#FFB570;" edge="1" parent="1">
          <mxGeometry width="50" height="50" relative="1" as="geometry">
            <mxPoint x="13" y="423" as="sourcePoint" />
            <mxPoint x="393" y="423" as="targetPoint" />
          </mxGeometry>
        </mxCell>
        <mxCell id="w9-L-fleVWnlw-HBEwQN-132" value="&lt;div&gt;QT MEP&lt;/div&gt;&lt;div&gt;Database&lt;br&gt;&lt;/div&gt;" style="rounded=0;whiteSpace=wrap;html=1;fillColor=#fad7ac;strokeColor=#b46504;" vertex="1" parent="1">
          <mxGeometry x="599.6" y="442" width="130" height="40" as="geometry" />
        </mxCell>
        <mxCell id="w9-L-fleVWnlw-HBEwQN-133" value="QT MEP" style="rounded=0;whiteSpace=wrap;html=1;fillColor=#fad7ac;strokeColor=#b46504;" vertex="1" parent="1">
          <mxGeometry x="599.6" y="522" width="130" height="40" as="geometry" />
        </mxCell>
        <mxCell id="w9-L-fleVWnlw-HBEwQN-134" style="edgeStyle=orthogonalEdgeStyle;rounded=0;orthogonalLoop=1;jettySize=auto;html=1;entryX=0.542;entryY=0.1;entryDx=0;entryDy=0;entryPerimeter=0;strokeWidth=3;strokeColor=none;" edge="1" parent="1" source="w9-L-fleVWnlw-HBEwQN-135" target="w9-L-fleVWnlw-HBEwQN-137">
          <mxGeometry relative="1" as="geometry" />
        </mxCell>
        <mxCell id="w9-L-fleVWnlw-HBEwQN-135" value="NAVIS" style="rounded=0;whiteSpace=wrap;html=1;fillColor=#dae8fc;strokeColor=#6c8ebf;" vertex="1" parent="1">
          <mxGeometry x="579.6" y="661" width="70" height="60" as="geometry" />
        </mxCell>
        <mxCell id="w9-L-fleVWnlw-HBEwQN-136" value="" style="group" vertex="1" connectable="0" parent="1">
          <mxGeometry x="449.6" y="441" width="140" height="100" as="geometry" />
        </mxCell>
        <mxCell id="w9-L-fleVWnlw-HBEwQN-137" value="&lt;div&gt;&lt;br&gt;&lt;/div&gt;&lt;div&gt;&lt;br&gt;&lt;/div&gt;&lt;div&gt;&lt;br&gt;&lt;/div&gt;&lt;div&gt;&lt;br&gt;&lt;/div&gt;&lt;div&gt;&lt;br&gt;&lt;/div&gt;&lt;div&gt;Application Server&lt;br&gt;&lt;/div&gt;" style="rounded=0;whiteSpace=wrap;html=1;fillColor=#dae8fc;strokeColor=#6c8ebf;" vertex="1" parent="w9-L-fleVWnlw-HBEwQN-136">
          <mxGeometry x="8.75" width="105" height="100" as="geometry" />
        </mxCell>
        <mxCell id="w9-L-fleVWnlw-HBEwQN-138" value="&lt;div&gt;&lt;font style=&quot;font-size: 12px&quot;&gt;Admin &lt;br&gt;&lt;/font&gt;&lt;/div&gt;&lt;div&gt;&lt;font style=&quot;font-size: 12px&quot;&gt;Panel&lt;/font&gt;&lt;/div&gt;" style="rounded=0;whiteSpace=wrap;html=1;fillColor=#fff2cc;strokeColor=#d6b656;" vertex="1" parent="w9-L-fleVWnlw-HBEwQN-136">
          <mxGeometry x="39.379999999999995" y="10" width="43.75" height="60" as="geometry" />
        </mxCell>
        <mxCell id="w9-L-fleVWnlw-HBEwQN-139" value="" style="endArrow=none;dashed=1;html=1;fillColor=#b1ddf0;rounded=0;strokeWidth=3;strokeColor=#10739e;" edge="1" parent="w9-L-fleVWnlw-HBEwQN-136">
          <mxGeometry width="50" height="50" relative="1" as="geometry">
            <mxPoint y="-20" as="sourcePoint" />
            <mxPoint y="150" as="targetPoint" />
          </mxGeometry>
        </mxCell>
        <mxCell id="w9-L-fleVWnlw-HBEwQN-140" value="" style="endArrow=none;html=1;strokeWidth=1;entryX=0;entryY=0.75;entryDx=0;entryDy=0;strokeColor=#330000;" edge="1" parent="w9-L-fleVWnlw-HBEwQN-136" target="w9-L-fleVWnlw-HBEwQN-132">
          <mxGeometry width="50" height="50" relative="1" as="geometry">
            <mxPoint x="83.13" y="30" as="sourcePoint" />
            <mxPoint x="133.13" y="-20" as="targetPoint" />
          </mxGeometry>
        </mxCell>
        <mxCell id="w9-L-fleVWnlw-HBEwQN-141" value="&lt;div&gt;QT&lt;/div&gt;&lt;div&gt;Gateway &lt;br&gt;&lt;/div&gt;&lt;div&gt;QMGR&lt;br&gt;&lt;/div&gt;" style="rounded=0;whiteSpace=wrap;html=1;fillColor=#fad7ac;strokeColor=#b46504;" vertex="1" parent="1">
          <mxGeometry x="739.6" y="461" width="72" height="60" as="geometry" />
        </mxCell>
        <mxCell id="w9-L-fleVWnlw-HBEwQN-142" value="" style="endArrow=none;dashed=1;html=1;fillColor=#f8cecc;rounded=0;strokeWidth=3;strokeColor=#FFB570;" edge="1" parent="1">
          <mxGeometry width="50" height="50" relative="1" as="geometry">
            <mxPoint x="449.6" y="421" as="sourcePoint" />
            <mxPoint x="829.6" y="421" as="targetPoint" />
          </mxGeometry>
        </mxCell>
        <mxCell id="w9-L-fleVWnlw-HBEwQN-143" value="" style="endArrow=none;dashed=1;html=1;fillColor=#b1ddf0;rounded=0;strokeWidth=3;strokeColor=#10739e;" edge="1" parent="1">
          <mxGeometry width="50" height="50" relative="1" as="geometry">
            <mxPoint x="449.6" y="591" as="sourcePoint" />
            <mxPoint x="829.6" y="591" as="targetPoint" />
          </mxGeometry>
        </mxCell>
        <mxCell id="w9-L-fleVWnlw-HBEwQN-144" value="" style="endArrow=none;dashed=1;html=1;fillColor=#f8cecc;rounded=0;strokeWidth=3;strokeColor=#FFB570;" edge="1" parent="1">
          <mxGeometry width="50" height="50" relative="1" as="geometry">
            <mxPoint x="829.6" y="421" as="sourcePoint" />
            <mxPoint x="829.6" y="591" as="targetPoint" />
          </mxGeometry>
        </mxCell>
        <mxCell id="w9-L-fleVWnlw-HBEwQN-145" value="" style="endArrow=none;html=1;strokeWidth=1;endSize=3;exitX=0.5;exitY=0;exitDx=0;exitDy=0;" edge="1" parent="1">
          <mxGeometry width="50" height="50" relative="1" as="geometry">
            <mxPoint x="694.6" y="660" as="sourcePoint" />
            <mxPoint x="694.6" y="563" as="targetPoint" />
          </mxGeometry>
        </mxCell>
        <mxCell id="w9-L-fleVWnlw-HBEwQN-146" value="" style="endArrow=none;html=1;strokeColor=#000000;strokeWidth=1;entryX=0.5;entryY=1;entryDx=0;entryDy=0;" edge="1" parent="1">
          <mxGeometry width="50" height="50" relative="1" as="geometry">
            <mxPoint x="729.6" y="661" as="sourcePoint" />
            <mxPoint x="779.6" y="521" as="targetPoint" />
          </mxGeometry>
        </mxCell>
        <mxCell id="w9-L-fleVWnlw-HBEwQN-147" value="" style="endArrow=none;html=1;strokeColor=#000000;strokeWidth=1;" edge="1" parent="1">
          <mxGeometry width="50" height="50" relative="1" as="geometry">
            <mxPoint x="665.6" y="521" as="sourcePoint" />
            <mxPoint x="665.6" y="481" as="targetPoint" />
          </mxGeometry>
        </mxCell>
        <mxCell id="w9-L-fleVWnlw-HBEwQN-148" value="" style="endArrow=none;html=1;strokeColor=#000000;strokeWidth=1;curved=1;exitX=0;exitY=1;exitDx=0;exitDy=0;" edge="1" parent="1" source="w9-L-fleVWnlw-HBEwQN-141">
          <mxGeometry width="50" height="50" relative="1" as="geometry">
            <mxPoint x="739.6" y="517" as="sourcePoint" />
            <mxPoint x="709.6" y="482" as="targetPoint" />
          </mxGeometry>
        </mxCell>
        <mxCell id="w9-L-fleVWnlw-HBEwQN-149" value="AGMS" style="rounded=0;whiteSpace=wrap;html=1;fillColor=#dae8fc;strokeColor=#6c8ebf;" vertex="1" parent="1">
          <mxGeometry x="659.6" y="661" width="70" height="60" as="geometry" />
        </mxCell>
        <mxCell id="w9-L-fleVWnlw-HBEwQN-150" value="" style="endArrow=none;html=1;strokeColor=#000000;strokeWidth=1;" edge="1" parent="1">
          <mxGeometry width="50" height="50" relative="1" as="geometry">
            <mxPoint x="619.6" y="661" as="sourcePoint" />
            <mxPoint x="619.1999999999999" y="562" as="targetPoint" />
          </mxGeometry>
        </mxCell>
        <mxCell id="w9-L-fleVWnlw-HBEwQN-151" value="&lt;div&gt;CCIA MEP&lt;/div&gt;&lt;div&gt;Database&lt;br&gt;&lt;/div&gt;" style="rounded=0;whiteSpace=wrap;html=1;fillColor=#b0e3e6;strokeColor=#0e8088;" vertex="1" parent="1">
          <mxGeometry x="599.6" y="442" width="130" height="40" as="geometry" />
        </mxCell>
        <mxCell id="w9-L-fleVWnlw-HBEwQN-152" value="CCIA MEP" style="rounded=0;whiteSpace=wrap;html=1;fillColor=#b0e3e6;strokeColor=#0e8088;" vertex="1" parent="1">
          <mxGeometry x="599.6" y="522" width="130" height="40" as="geometry" />
        </mxCell>
        <mxCell id="w9-L-fleVWnlw-HBEwQN-153" style="edgeStyle=orthogonalEdgeStyle;rounded=0;orthogonalLoop=1;jettySize=auto;html=1;entryX=0.542;entryY=0.1;entryDx=0;entryDy=0;entryPerimeter=0;strokeWidth=3;strokeColor=none;" edge="1" parent="1" source="w9-L-fleVWnlw-HBEwQN-154" target="w9-L-fleVWnlw-HBEwQN-155">
          <mxGeometry relative="1" as="geometry" />
        </mxCell>
        <mxCell id="w9-L-fleVWnlw-HBEwQN-154" value="Custom Single Window" style="rounded=0;whiteSpace=wrap;html=1;fillColor=#f9f7ed;strokeColor=#36393d;" vertex="1" parent="1">
          <mxGeometry x="579.6" y="661" width="70" height="60" as="geometry" />
        </mxCell>
        <mxCell id="w9-L-fleVWnlw-HBEwQN-155" value="&lt;div&gt;&lt;br&gt;&lt;/div&gt;&lt;div&gt;&lt;br&gt;&lt;/div&gt;&lt;div&gt;&lt;br&gt;&lt;/div&gt;&lt;div&gt;&lt;br&gt;&lt;/div&gt;&lt;div&gt;&lt;br&gt;&lt;/div&gt;&lt;div&gt;Application Server&lt;br&gt;&lt;/div&gt;" style="rounded=0;whiteSpace=wrap;html=1;fillColor=#f5f5f5;strokeColor=#666666;gradientColor=#b3b3b3;" vertex="1" parent="1">
          <mxGeometry x="458.35" y="441" width="105" height="100" as="geometry" />
        </mxCell>
        <mxCell id="w9-L-fleVWnlw-HBEwQN-156" value="&lt;div&gt;&lt;font style=&quot;font-size: 12px&quot;&gt;Admin &lt;br&gt;&lt;/font&gt;&lt;/div&gt;&lt;div&gt;&lt;font style=&quot;font-size: 12px&quot;&gt;Panel&lt;/font&gt;&lt;/div&gt;" style="rounded=0;whiteSpace=wrap;html=1;fillColor=#fff2cc;strokeColor=#d6b656;" vertex="1" parent="1">
          <mxGeometry x="488.98" y="451" width="43.75" height="60" as="geometry" />
        </mxCell>
        <mxCell id="w9-L-fleVWnlw-HBEwQN-157" value="" style="endArrow=none;html=1;strokeWidth=1;entryX=0;entryY=0.75;entryDx=0;entryDy=0;strokeColor=#330000;" edge="1" parent="1" target="w9-L-fleVWnlw-HBEwQN-151">
          <mxGeometry width="50" height="50" relative="1" as="geometry">
            <mxPoint x="532.7300000000001" y="471" as="sourcePoint" />
            <mxPoint x="569.73" y="-22" as="targetPoint" />
          </mxGeometry>
        </mxCell>
        <mxCell id="w9-L-fleVWnlw-HBEwQN-158" value="&lt;div&gt;CCIA&lt;br&gt;&lt;/div&gt;&lt;div&gt;Gateway &lt;br&gt;&lt;/div&gt;&lt;div&gt;QMGR&lt;br&gt;&lt;/div&gt;" style="rounded=0;whiteSpace=wrap;html=1;fillColor=#b0e3e6;strokeColor=#0e8088;" vertex="1" parent="1">
          <mxGeometry x="739.6" y="461" width="72" height="60" as="geometry" />
        </mxCell>
        <mxCell id="w9-L-fleVWnlw-HBEwQN-159" value="" style="endArrow=none;dashed=1;html=1;fillColor=#b0e3e6;rounded=0;strokeWidth=3;strokeColor=#0e8088;" edge="1" parent="1">
          <mxGeometry width="50" height="50" relative="1" as="geometry">
            <mxPoint x="829.6" y="421" as="sourcePoint" />
            <mxPoint x="829.6" y="591" as="targetPoint" />
          </mxGeometry>
        </mxCell>
        <mxCell id="w9-L-fleVWnlw-HBEwQN-160" value="" style="endArrow=none;html=1;strokeWidth=1;endSize=3;exitX=0.5;exitY=0;exitDx=0;exitDy=0;" edge="1" parent="1">
          <mxGeometry width="50" height="50" relative="1" as="geometry">
            <mxPoint x="694.6" y="660" as="sourcePoint" />
            <mxPoint x="694.6" y="563" as="targetPoint" />
          </mxGeometry>
        </mxCell>
        <mxCell id="w9-L-fleVWnlw-HBEwQN-161" value="" style="endArrow=none;html=1;strokeColor=#000000;strokeWidth=1;entryX=0.5;entryY=1;entryDx=0;entryDy=0;" edge="1" parent="1">
          <mxGeometry width="50" height="50" relative="1" as="geometry">
            <mxPoint x="729.6" y="661" as="sourcePoint" />
            <mxPoint x="779.6" y="521" as="targetPoint" />
          </mxGeometry>
        </mxCell>
        <mxCell id="w9-L-fleVWnlw-HBEwQN-162" value="" style="endArrow=none;html=1;strokeColor=#000000;strokeWidth=1;" edge="1" parent="1">
          <mxGeometry width="50" height="50" relative="1" as="geometry">
            <mxPoint x="665.6" y="521" as="sourcePoint" />
            <mxPoint x="665.6" y="481" as="targetPoint" />
          </mxGeometry>
        </mxCell>
        <mxCell id="w9-L-fleVWnlw-HBEwQN-163" value="" style="endArrow=none;html=1;strokeColor=#000000;strokeWidth=1;curved=1;exitX=0;exitY=1;exitDx=0;exitDy=0;" edge="1" parent="1" source="w9-L-fleVWnlw-HBEwQN-158">
          <mxGeometry width="50" height="50" relative="1" as="geometry">
            <mxPoint x="739.6" y="517" as="sourcePoint" />
            <mxPoint x="709.6" y="482" as="targetPoint" />
          </mxGeometry>
        </mxCell>
        <mxCell id="w9-L-fleVWnlw-HBEwQN-164" value="AGMS" style="rounded=0;whiteSpace=wrap;html=1;fillColor=#f9f7ed;strokeColor=#36393d;" vertex="1" parent="1">
          <mxGeometry x="659.6" y="661" width="70" height="60" as="geometry" />
        </mxCell>
        <mxCell id="w9-L-fleVWnlw-HBEwQN-165" value="" style="endArrow=none;html=1;strokeColor=#000000;strokeWidth=1;" edge="1" parent="1">
          <mxGeometry width="50" height="50" relative="1" as="geometry">
            <mxPoint x="619.6" y="661" as="sourcePoint" />
            <mxPoint x="619.1999999999999" y="562" as="targetPoint" />
          </mxGeometry>
        </mxCell>
        <mxCell id="w9-L-fleVWnlw-HBEwQN-166" value="" style="endArrow=none;dashed=1;html=1;fillColor=#b1ddf0;rounded=0;strokeWidth=3;strokeColor=#10739e;" edge="1" parent="1">
          <mxGeometry width="50" height="50" relative="1" as="geometry">
            <mxPoint x="449.6" y="421" as="sourcePoint" />
            <mxPoint x="829.6" y="421" as="targetPoint" />
          </mxGeometry>
        </mxCell>
        <mxCell id="w9-L-fleVWnlw-HBEwQN-19" value="" style="endArrow=none;dashed=1;html=1;fillColor=#f8cecc;rounded=0;strokeWidth=3;strokeColor=#006600;" edge="1" parent="1">
          <mxGeometry width="50" height="50" relative="1" as="geometry">
            <mxPoint x="10" y="152" as="sourcePoint" />
            <mxPoint x="10" y="322" as="targetPoint" />
          </mxGeometry>
        </mxCell>
        <mxCell id="w9-L-fleVWnlw-HBEwQN-9" value="&lt;div&gt;Shipping&lt;/div&gt;&lt;div&gt;Line&lt;br&gt;&lt;/div&gt;" style="rounded=0;whiteSpace=wrap;html=1;fillColor=#f9f7ed;strokeColor=#36393d;" vertex="1" parent="1">
          <mxGeometry x="260" y="20" width="80" height="60" as="geometry" />
        </mxCell>
        <mxCell id="w9-L-fleVWnlw-HBEwQN-82" value="IHS" style="rounded=0;whiteSpace=wrap;html=1;fillColor=#f9f7ed;strokeColor=#36393d;" vertex="1" parent="1">
          <mxGeometry x="50" y="20" width="70" height="60" as="geometry" />
        </mxCell>
        <mxCell id="w9-L-fleVWnlw-HBEwQN-83" value="Bank" style="rounded=0;whiteSpace=wrap;html=1;fillColor=#f9f7ed;strokeColor=#36393d;" vertex="1" parent="1">
          <mxGeometry x="150" y="20" width="80" height="60" as="geometry" />
        </mxCell>
      </root>
    </mxGraphModel>
  </diagram>
</mxfile>
